<?xml version="1.0" encoding="utf-8"?>
<!-- Svg Vector Icons : http://www.onlinewebfonts.com/icon -->
<!DOCTYPE svg PUBLIC "-//W3C//DTD SVG 1.1//EN" "http://www.w3.org/Graphics/SVG/1.1/DTD/svg11.dtd">
<svg version="1.1" xmlns="http://www.w3.org/2000/svg" xmlns:xlink="http://www.w3.org/1999/xlink" x="0px" y="0px" viewBox="0 0 1000 1000" enable-background="new 0 0 1000 1000" xml:space="preserve" style="fill:#ffffff;">
<metadata> Svg Vector Icons : http://www.onlinewebfonts.com/icon </metadata>
<g><g transform="translate(0.000000,448.000000) scale(0.100000,-0.100000)"><path d="M386.8,3750.1c-36.4-13.4-105.3-63.2-153.2-111.1c-164.7-162.8-178.1-390.7-34.5-565c101.5-122.6,180-147.5,503.7-164.7c634-32.6,1076.4-229.8,1553.3-695.2l220.3-212.6l-59.4-86.2c-168.5-245.2-319.9-635.9-373.5-973c-44-268.1-32.6-771.9,26.8-1061.1c107.3-526.7,358.2-1082.1,676.1-1488.2l95.8-120.7l-40.2-72.8c-61.3-111.1-55.5-260.5,15.3-358.2c84.3-116.8,247.1-168.5,377.3-120.7c67,26.8,4075.7,4004.8,4148.5,4115.9c107.2,170.5,51.7,383.1-126.4,475c-67,34.5-218.3,38.3-281.5,5.7c-24.9-13.4-360.1-337.1-745-720.1c-664.6-660.8-704.8-697.2-770-697.2c-53.6,0-80.4,11.5-109.2,49.8c-84.3,107.3-88.1,101.5,624.4,815.9c634,633.9,662.7,666.5,628.2,695.2c-80.4,61.3-333.3,203-526.7,295c-235.6,113-536.3,214.5-798.7,272c-273.9,57.5-812.1,72.8-1080.2,28.7c-337.1-55.5-724-204.9-974.9-373.5c-47.9-32.6-93.8-59.4-103.4-59.4c-9.6,0-116.8,97.7-239.4,216.4c-250.9,243.2-394.6,356.2-643.5,501.8c-312.2,183.9-681.8,319.9-1043.8,385C938.4,3765.4,474.9,3778.8,386.8,3750.1z"/><path d="M7425.4,957.6C7251.2,921.2,7163.1,752.7,7232,586c76.6-183.9,314.1-214.5,452-57.5c46,53.6,57.5,84.3,57.5,153.2C7741.5,871.4,7599.7,994,7425.4,957.6z"/><path d="M8431,551.6c-68.9-34.5-93.8-61.3-122.6-134.1c-32.5-76.6-34.5-101.5-15.3-164.7c65.1-214.5,316-273.9,461.6-109.2c78.5,90,91.9,174.3,42.1,285.4c-30.6,70.9-55.5,97.7-120.7,126.4C8570.8,603.3,8534.4,603.3,8431,551.6z"/><path d="M9503.5,174.3c-178.1-93.8-185.8-356.2-13.4-463.5c90-57.5,243.2-42.1,319.9,30.6C10041.7-36.4,9785.1,325.6,9503.5,174.3z"/><path d="M6847-95.8c-170.4-103.4-157.1-383.1,21.1-467.3c88.1-42.1,180-38.3,256.6,7.7c237.5,145.6,143.7,498-132.1,498C6942.8-57.5,6883.4-72.8,6847-95.8z"/><path d="M7837.2-693.4c-212.6-111.1-195.4-400.3,28.7-486.5c113-42.1,210.7-15.3,295,78.5c51.7,59.4,59.4,84.3,59.4,172.4c0,88.1-7.7,113-59.4,170.4c-49.8,59.4-149.4,107.3-218.3,107.3C7931.1-651.2,7883.2-670.4,7837.2-693.4z"/><path d="M6216.9-940.4c-34.5-9.6-88.1-47.9-120.7-84.3c-51.7-59.4-59.4-84.3-59.4-172.4c0-88.1,7.7-113,59.4-172.4c84.3-93.9,182-120.7,295-78.5c224.1,86.2,241.3,375.4,28.7,486.5C6328-915.5,6308.8-913.6,6216.9-940.4z"/><path d="M8800.6-1294.8c-182-90-185.8-383.1-7.6-476.9c32.5-15.3,97.7-28.7,147.5-28.7c76.6,0,97.7,9.6,162.8,72.8c80.4,82.4,103.4,145.6,86.2,241.3C9156.9-1312,8961.5-1216.2,8800.6-1294.8z"/><path d="M5280.3-1664.4c-88.1-51.7-132.1-132.1-132.1-233.7c0-151.3,114.9-266.2,266.2-266.2c153.2,0,266.2,114.9,266.2,266.2C5680.6-1689.3,5454.6-1557.1,5280.3-1664.4z"/><path d="M7027.1-1752.5c-137.9-47.9-195.4-136-182-281.6c26.8-268.1,381.1-329.4,505.6-86.2c36.4,68.9,26.8,201.1-19.2,272C7272.2-1756.3,7136.2-1714.2,7027.1-1752.5z"/><path d="M4274.8-2149c-210.7-109.2-195.4-400.3,26.8-484.6c65.1-24.9,97.7-26.8,157.1-11.5c254.7,69,275.8,408,32.6,511.4C4407-2097.3,4372.5-2099.2,4274.8-2149z"/><path d="M7766.4-2585.7C7553.8-2714,7636.1-3045.3,7889-3076c145.5-19.2,293,114.9,293,264.3c0,155.1-109.2,264.3-268.1,264.3C7862.1-2547.3,7802.8-2562.7,7766.4-2585.7z"/><path d="M5950.7-2599.1c-70.9-17.2-159-99.6-182-170.5c-95.8-285.4,260.5-490.3,457.8-266.2c49.8,59.4,59.4,84.3,59.4,172.4c0,84.3-9.6,113-51.7,164.7C6157.5-2606.7,6059.9-2572.2,5950.7-2599.1z"/><path d="M4690.4-3208.1c-126.4-44.1-185.8-124.5-185.8-252.8c0-266.2,342.8-365.8,492.2-141.7C5136.7-3395.8,4926-3123.9,4690.4-3208.1z"/><path d="M6483.1-3600.7c-222.2-136-113-498,151.3-498c130.2,0,264.3,134.1,264.3,264.3C6898.7-3621.8,6663.2-3489.7,6483.1-3600.7z"/><path d="M5008.4-4309.4c-172.4-105.3-157-383.1,26.8-469.2c233.7-111.1,476.9,143.6,350.5,367.7c-23,42.1-67,90-95.8,107.2C5217.1-4259.6,5085-4261.5,5008.4-4309.4z"/></g></g>
</svg>