<?xml version="1.0" encoding="utf-8"?>
<!-- Generator: Adobe Illustrator 19.0.0, SVG Export Plug-In . SVG Version: 6.00 Build 0)  -->
<svg version="1.1" id="Layer_1" xmlns="http://www.w3.org/2000/svg" xmlns:xlink="http://www.w3.org/1999/xlink" x="0px" y="0px"
	 viewBox="0 0 96 96" style="enable-background:new 0 0 96 96;" xml:space="preserve">
<style type="text/css">
	.st0{fill:#ffffff;}
</style>
<g id="XMLID_2_">
	<path id="XMLID_8_" class="st0" d="M58,45.5c4.1,0,7.5-3.4,7.5-7.5s-3.3-7.5-7.5-7.5s-7.5,3.4-7.5,7.5S53.9,45.5,58,45.5z M38,45.5
		c4.1,0,7.5-3.4,7.5-7.5s-3.3-7.5-7.5-7.5s-7.5,3.4-7.5,7.5S33.9,45.5,38,45.5z M38,50.5c-5.8,0-17.5,2.9-17.5,8.8v6.3h35v-6.3
		C55.5,53.4,43.8,50.5,38,50.5z M58,50.5c-0.7,0-1.5,0.1-2.4,0.1c2.9,2.1,4.9,4.9,4.9,8.6v6.3h15v-6.3C75.5,53.4,63.8,50.5,58,50.5z
		"/>
</g>
</svg>
